# xmcd
#
# Track frame offsets:
#	150
#	12696
#	26346
#	40153
#	53260
#	66995
#	80072
#	93335
#	106082
#	120255
#	134039
#	147794
#	161315
#	174181
#	188251
#	201466
#	214945
#	228618
#	240596
#	254699
#	267738
#	278061
#	294274
#	308889
#	321005
#
# Disc length: 4432 seconds
#
# Revision: 1
# Processed by: cddbd v1.5.1PL2 Copyright (c) Steve Scherf et al.
# Submitted via: EasyCDDAExtractor 9.1.3.1
#
DISCID=62114e19
DTITLE=Eddie Boyd - Rockin' This House (Chicago Blues Piano 1946-53) - Disc D 
DTITLE=(Eddie Boyd, 1947-52)
DYEAR=2006
DGENRE=Blues
TTITLE0=I Had To Let Her Go
TTITLE1=Kilroy Won't Be Back
TTITLE2=You Got To Leave That Girl
TTITLE3=Rosa Lee Swing
TTITLE4=Unfair Lovers
TTITLE5=Blue Monday Blues
TTITLE6=Why Did She Leave Me
TTITLE7=Playmate Shuffle
TTITLE8=Mr. Highway Man
TTITLE9=Getting My Divorce
TTITLE10=What Makes These Things Happen To Me
TTITLE11=Baby, What's Wrong With You
TTITLE12=Chicago Is Just That Way
TTITLE13=Eddie's Blues
TTITLE14=I Can Trust My Baby
TTITLE15=Down Beat Rhythm
TTITLE16=Something Good Will Come To Me
TTITLE17=Why Don't You Be Wise, Baby
TTITLE18=I Gotta Find My Baby
TTITLE19=Lonesome For My Baby
TTITLE20=I'm Goin' Downtown
TTITLE21=Hard Headed Woman
TTITLE22=It's Miserable To Be Alone
TTITLE23=Five Long Years
TTITLE24=Blue Coat Man
EXTD=
EXTT0=
EXTT1=
EXTT2=
EXTT3=
EXTT4=
EXTT5=
EXTT6=
EXTT7=
EXTT8=
EXTT9=
EXTT10=
EXTT11=
EXTT12=
EXTT13=
EXTT14=
EXTT15=
EXTT16=
EXTT17=
EXTT18=
EXTT19=
EXTT20=
EXTT21=
EXTT22=
EXTT23=
EXTT24=
PLAYORDER=
